<svg width="40" height="42" viewBox="0 0 40 42" fill="none" xmlns="http://www.w3.org/2000/svg">
<path d="M20 21C22.0767 21 24.1068 20.3842 25.8335 19.2304C27.5602 18.0767 28.906 16.4368 29.7007 14.5182C30.4955 12.5996 30.7034 10.4884 30.2982 8.45156C29.8931 6.41476 28.8931 4.54384 27.4246 3.07538C25.9562 1.60693 24.0853 0.606904 22.0485 0.201759C20.0116 -0.203386 17.9004 0.00454947 15.9818 0.79927C14.0632 1.59399 12.4233 2.9398 11.2696 4.66652C10.1158 6.39323 9.5 8.4233 9.5 10.5C9.5 13.2848 10.6062 15.9555 12.5754 17.9246C14.5445 19.8938 17.2152 21 20 21ZM20 24C13.4919 24 0.5 28.02 0.5 36V42H39.5V36C39.5 28.02 26.5081 24 20 24Z" fill="#2A166D"/>
</svg>
