<svg width="20" height="19" viewBox="0 0 20 19" fill="none" xmlns="http://www.w3.org/2000/svg">
<path d="M19.2829 14.0359C19.119 15.2814 18.5074 16.4245 17.5622 17.252C16.6171 18.0794 15.403 18.5345 14.1469 18.5322C6.84911 18.5322 0.911629 12.5948 0.911629 5.297C0.909378 4.04084 1.36447 2.82681 2.19189 1.88166C3.01932 0.936509 4.16251 0.324874 5.40794 0.16099C5.72287 0.122535 6.0418 0.186966 6.31711 0.344664C6.59242 0.502363 6.80935 0.744871 6.9355 1.03599L8.87667 5.36961V5.38064C8.97326 5.60348 9.01315 5.84678 8.99278 6.08879C8.97241 6.33081 8.89242 6.56402 8.75994 6.76758C8.7434 6.7924 8.72594 6.81538 8.70755 6.83835L6.79396 9.10673C7.48238 10.5056 8.94561 11.956 10.3629 12.6462L12.6 10.7428C12.622 10.7243 12.645 10.7071 12.6689 10.6913C12.8723 10.5556 13.1063 10.4728 13.3498 10.4503C13.5932 10.4279 13.8384 10.4665 14.0632 10.5626L14.0752 10.5681L18.4051 12.5084C18.6968 12.6341 18.9399 12.8508 19.0981 13.1262C19.2563 13.4015 19.3211 13.7207 19.2829 14.0359Z" fill="white"/>
</svg>
