<svg width="19" height="20" viewBox="0 0 19 20" fill="none" xmlns="http://www.w3.org/2000/svg">
<path d="M18.7388 14.9136C18.5716 16.1839 17.9477 17.35 16.9837 18.1939C16.0196 19.0379 14.7813 19.5021 13.5 19.4998C6.05626 19.4998 8.4831e-06 13.4436 8.4831e-06 5.99981C-0.00228837 4.71852 0.461903 3.48021 1.30588 2.51615C2.14986 1.55209 3.31592 0.928223 4.58626 0.76106C4.9075 0.721836 5.2328 0.787556 5.51362 0.948409C5.79444 1.10926 6.0157 1.35662 6.14438 1.65356L8.12438 6.07387V6.08512C8.2229 6.31242 8.26359 6.56059 8.24282 6.80744C8.22204 7.0543 8.14044 7.29217 8.00532 7.49981C7.98845 7.52512 7.97063 7.54856 7.95188 7.572L6.00001 9.88575C6.7022 11.3126 8.1947 12.792 9.64032 13.4961L11.9222 11.5545C11.9446 11.5356 11.9681 11.5181 11.9925 11.502C12.2 11.3636 12.4387 11.2792 12.687 11.2562C12.9353 11.2333 13.1854 11.2727 13.4147 11.3707L13.4269 11.3764L17.8434 13.3554C18.1409 13.4837 18.3889 13.7047 18.5503 13.9856C18.7116 14.2664 18.7778 14.592 18.7388 14.9136Z" fill="white"/>
</svg>
