<svg width="80" height="80" viewBox="0 0 80 80" fill="none" xmlns="http://www.w3.org/2000/svg">
<g filter="url(#filter0_d_110_1155)">
<path d="M14.1427 37.6638C14.1415 42.1986 15.3264 46.6265 17.5795 50.5294L13.9272 63.8642L27.5738 60.286C31.3482 62.3407 35.5772 63.4174 39.8747 63.4177H39.886C54.0729 63.4177 65.6213 51.8735 65.6274 37.6841C65.6301 30.8083 62.9549 24.3428 58.0943 19.4785C53.2346 14.6146 46.7714 11.9345 39.8849 11.9314C25.6964 11.9314 14.1488 23.475 14.1429 37.6638" fill="url(#paint0_linear_110_1155)"/>
<path d="M13.2238 37.6554C13.2224 42.3534 14.4498 46.9397 16.7832 50.9822L13 64.7951L27.1358 61.0887C31.0307 63.2123 35.416 64.3319 39.8782 64.3336H39.8897C54.5855 64.3336 66.5488 52.374 66.5551 37.6767C66.5576 30.5539 63.7861 23.8559 58.752 18.8174C53.7172 13.7794 47.0228 11.0029 39.8897 11C25.1913 11 13.2297 22.9579 13.2238 37.6554ZM21.6422 50.286L21.1144 49.4482C18.8957 45.9202 17.7246 41.8433 17.7262 37.6571C17.7308 25.4408 27.6728 15.502 39.8981 15.502C45.8184 15.5045 51.3823 17.8124 55.5671 21.9997C59.7517 26.1875 62.0544 31.7543 62.0529 37.675C62.0475 49.8913 52.1053 59.8314 39.8897 59.8314H39.8809C35.9034 59.8293 32.0024 58.7611 28.6004 56.7425L27.7908 56.2624L19.4023 58.4617L21.6422 50.286Z" fill="url(#paint1_linear_110_1155)"/>
<path d="M33.2251 26.5117C32.7259 25.4023 32.2006 25.3799 31.726 25.3605C31.3373 25.3437 30.8929 25.345 30.449 25.345C30.0047 25.345 29.2827 25.5121 28.6725 26.1784C28.0616 26.8454 26.3403 28.457 26.3403 31.735C26.3403 35.0129 28.7279 38.1811 29.0608 38.626C29.394 39.0702 33.6701 46.0122 40.4423 48.6829C46.0706 50.9023 47.2159 50.4609 48.4375 50.3496C49.6592 50.2387 52.3796 48.7383 52.9346 47.1825C53.4901 45.6269 53.4901 44.2935 53.3235 44.0148C53.157 43.7372 52.7127 43.5705 52.0464 43.2374C51.3801 42.9044 48.1042 41.2923 47.4936 41.0699C46.8827 40.8477 46.4386 40.7369 45.9942 41.404C45.5499 42.0701 44.274 43.5705 43.8851 44.0148C43.4966 44.4602 43.1077 44.5156 42.4416 44.1824C41.7749 43.8481 39.6291 43.1454 37.0834 40.8758C35.1027 39.1097 33.7655 36.9288 33.3768 36.2617C32.9881 35.5956 33.3351 35.2345 33.6692 34.9025C33.9686 34.604 34.3357 34.1245 34.6692 33.7356C35.0014 33.3465 35.1123 33.0689 35.3345 32.6245C35.5568 32.1798 35.4455 31.7906 35.2792 31.4574C35.1123 31.1241 33.8175 27.829 33.2251 26.5117Z" fill="white"/>
</g>
<defs>
<filter id="filter0_d_110_1155" x="0.0463581" y="0.205298" width="79.4625" height="79.8807" filterUnits="userSpaceOnUse" color-interpolation-filters="sRGB">
<feFlood flood-opacity="0" result="BackgroundImageFix"/>
<feColorMatrix in="SourceAlpha" type="matrix" values="0 0 0 0 0 0 0 0 0 0 0 0 0 0 0 0 0 0 127 0" result="hardAlpha"/>
<feOffset dy="2.15894"/>
<feGaussianBlur stdDeviation="6.47682"/>
<feComposite in2="hardAlpha" operator="out"/>
<feColorMatrix type="matrix" values="0 0 0 0 0 0 0 0 0 0 0 0 0 0 0 0 0 0 0.16 0"/>
<feBlend mode="normal" in2="BackgroundImageFix" result="effect1_dropShadow_110_1155"/>
<feBlend mode="normal" in="SourceGraphic" in2="effect1_dropShadow_110_1155" result="shape"/>
</filter>
<linearGradient id="paint0_linear_110_1155" x1="2598.93" y1="5205.21" x2="2598.93" y2="11.9314" gradientUnits="userSpaceOnUse">
<stop stop-color="#1FAF38"/>
<stop offset="1" stop-color="#60D669"/>
</linearGradient>
<linearGradient id="paint1_linear_110_1155" x1="2690.76" y1="5390.51" x2="2690.76" y2="11" gradientUnits="userSpaceOnUse">
<stop stop-color="#F9F9F9"/>
<stop offset="1" stop-color="white"/>
</linearGradient>
</defs>
</svg>
